<?xml version="1.0" encoding="utf-8"?>
<!-- Generator: Adobe Illustrator 20.0.0, SVG Export Plug-In . SVG Version: 6.00 Build 0)  -->
<svg version="1.1" id="Layer_1" xmlns="http://www.w3.org/2000/svg" xmlns:xlink="http://www.w3.org/1999/xlink" x="0px" y="0px"
	 viewBox="0 0 252 144" style="enable-background:new 0 0 252 144;" xml:space="preserve">
<style type="text/css">
	.st0{font-family:'Ovo';}
	.st1{font-size:12.5996px;}
	.st2{fill:#545454;}
	.st3{clip-path:url(#SVGID_2_);}
</style>
<g>
	<text transform="matrix(1 0 0 1 75.6284 75.7208)" class="st0 st1">d</text>
	<text transform="matrix(1 0 0 1 82.1499 75.7208)" class="st0 st1">r</text>
	<text transform="matrix(1 0 0 1 86.7764 75.7208)" class="st0 st1">e</text>
	<text transform="matrix(1 0 0 1 92.5845 75.7208)" class="st0 st1">a</text>
	<text transform="matrix(1 0 0 1 98.6875 75.7208)" class="st0 st1">m</text>
	<text transform="matrix(1 0 0 1 109.4712 75.7208)" class="st2 st0 st1">e</text>
	<text transform="matrix(1 0 0 1 115.2793 75.7208)" class="st2 st0 st1">x</text>
	<text transform="matrix(1 0 0 1 121.4072 75.7208)" class="st2 st0 st1">o</text>
	<text transform="matrix(1 0 0 1 127.916 75.7208)" class="st2 st0 st1">t</text>
	<text transform="matrix(1 0 0 1 131.8848 75.7208)" class="st2 st0 st1">i</text>
	<text transform="matrix(1 0 0 1 135.2314 75.7208)" class="st2 st0 st1">c</text>
	<text transform="matrix(1 0 0 1 140.8223 75.7208)" class="st0 st1">r</text>
	<text transform="matrix(1 0 0 1 145.4492 75.7208)" class="st0 st1">e</text>
	<text transform="matrix(1 0 0 1 151.2568 75.7208)" class="st0 st1">n</text>
	<text transform="matrix(1 0 0 1 158.3691 75.7208)" class="st0 st1">t</text>
	<text transform="matrix(1 0 0 1 162.3379 75.7208)" class="st0 st1">a</text>
	<text transform="matrix(1 0 0 1 168.4404 75.7208)" class="st0 st1">l</text>
	<text transform="matrix(1 0 0 1 171.8184 75.7208)" class="st0 st1">s</text>
	<polygon points="138.3,66.7 111.5,66.7 111.5,67.3 140.5,67.3 140.5,66.7 	"/>
</g>
<g>
	<defs>
		<rect id="SVGID_1_" x="103.4" y="34.5" width="39" height="39"/>
	</defs>
	<clipPath id="SVGID_2_">
		<use xlink:href="#SVGID_1_"  style="display:none;overflow:visible;"/>
	</clipPath>
	<path class="st3" d="M108.6,56c0.5-0.1,0.9-0.2,1.2-0.4c0,0.1,0.1,0.3,0.2,0.5c0.4,1,1.3,3.2,2.5,3.2c1,0,1.8-1.4,2.1-2
		c0.1-0.1,0-0.3-0.2-0.3c-0.2,0-0.4,0-0.5,0c-0.1,0-0.1,0-0.1-0.1l-0.2-0.2c-0.1-0.1-0.2-0.1-0.3,0c-0.4,0.6-0.7,0.6-0.8,0.6
		c-0.6-0.1-0.9-1.3-0.9-2.2c0-0.3,0.1-1,0.6-1.6c0.7-0.8,2-1,3.2-0.5c-0.1,0.7,0.1,1,0.3,1.1c0.7,0.6,2.8-0.2,3.8-1.6
		c1.3-1.9,0.3-4.5,0.3-4.5c0,0,1.2,2.5,0,4.9c-1,1.9-3,2.4-3.4,2.5c0.7,2.8,1.5,6.2,2.2,9l-0.3,1.2c0.4,0.1,0.9,0.1,1.5,0.1
		c0.5,0,0.9-0.1,1.2-0.2c0.1-2.1,0.1-4.8,0.2-6.9c0.5-0.3,1.1-0.8,1.6-1.6c0.9-1.4,1-2.8,1.1-2.8c0.1,0,0.1,0.6-0.1,2.9
		c0.6,0.1,2,0.3,3.4,1.3c1,0.7,1.5,1.6,1.8,2.1c0,1.2,0.1,2.3,0.1,3.5c-0.2,0.4-0.5,0.8-0.7,1.3c0.5,0.1,1.1,0.2,1.9,0.2
		c0.6,0,1.1-0.1,1.5-0.2c0.3-2,0.5-4.1,0.8-6.1c0.3-0.8,0.6-1.7,0.8-2.8c0.3-1.4,0.4-2.7,0.4-3.8c0.3,0.3,0.6,0.6,0.8,1
		c1.4,2.2,0.7,4.7,0.5,5.5v4.1c0.2-0.3,0.4-0.6,0.5-1c0.5-1.3,0.2-2.5,0-3c0.2-1,1-5.6-1.8-9.2c-2.1-2.7-5.2-3.4-8.1-4.1
		c-3.3-0.8-6.1-0.6-7.9-0.4c-0.6-0.5-1.8-1.3-3.2-1.2c-3.1,0.3-4.5,4.8-4.7,5.4c-0.5,1.6-0.5,3.1-0.4,3.9c-0.2,0.3-0.7,0.9-1.5,1.4
		c-1.3,0.7-2.5,0.5-2.9,0.4C105.6,55.8,107,56.3,108.6,56"/>
	<path class="st3" d="M124.7,64.3c0.5-0.3,0.9-0.7,1.2-1c-0.2-0.8-0.5-1.5-0.7-2.3c-0.3-1.1-0.7-2.1-1.1-3c-0.3-0.1-0.5-0.1-0.8-0.2
		c-0.2,0.3-0.5,0.6-0.9,0.9c-0.3,0.2-0.6,0.4-0.8,0.6c0.6,1.4,1.2,2.8,1.9,4.1l-0.1,1.6C123.7,64.8,124.2,64.6,124.7,64.3"/>
	<path class="st3" d="M132.8,59.1c-0.2,1.8-0.4,3.7-0.5,5.5c0.4-0.2,0.9-0.3,1.3-0.5c-0.1-1.5-0.2-3.1-0.3-4.6
		c0.1-0.7,0.2-1.5,0.2-2.2C133.3,57.9,133,58.5,132.8,59.1"/>
</g>
</svg>
